<?xml version="1.0" encoding="utf-8"?>
<!-- Generator: Adobe Illustrator 23.0.1, SVG Export Plug-In . SVG Version: 6.00 Build 0)  -->
<svg version="1.1" id="Layer_1" xmlns="http://www.w3.org/2000/svg" xmlns:xlink="http://www.w3.org/1999/xlink" x="0px" y="0px"
	 viewBox="0 0 289.3 1000" style="enable-background:new 0 0 289.3 1000;" xml:space="preserve">
<style type="text/css">
	.st0{display:none;}
	.st1{display:inline;fill:#0652A6;}
	.st2{fill:#024782;}
</style>
<g class="st0">
	<path class="st1" d="M-581.7,125c0,236.4,0,472.8,0,709.2c2,0.4,4,0.7,5.9,1.3c38.6,12,78.2,17.7,118.5,18.2
		c15.3,0.2,30.7-0.3,45.9-1.8c22.6-2.3,45.2-4.8,67.5-8.9c56.9-10.6,111.8-28.2,164.9-51c58.8-25.3,117.3-51.3,175.7-77.6
		c33.7-15.2,67.4-30.7,100.2-47.6c30.9-15.9,59.2-35.9,83.8-60.8c22.3-22.5,28.7-50.2,26.3-80.2c-2.2-28.5-15.4-52.4-35.2-72.8
		c-20.4-21-44.9-35.8-71.4-47.7c-39.3-17.7-80.7-28.4-123-35.6c-53.2-9-106.6-16.7-159.8-25.9c-37.5-6.5-74.8-13.7-111.9-22.1
		c-36.9-8.4-72.4-21.4-106.3-38.5c-57.8-29.2-105.8-70.8-148.3-119C-559.9,151.3-570.7,138.1-581.7,125z"/>
</g>
<g>
	<path class="st2" d="M4,259.2c4.7,27.6,7.7,55.5,14.1,82.7c16.1,68.5,51.5,127.3,93.9,182.3c41.6,53.9,61.8,115.5,66,183.1
		c2.3,37.3,3.8,74.8,9.2,111.7c7.7,54.4,26.1,105.3,62.3,147.7c10.8,12.6,24.2,22.9,36.4,34.3c1.4-1,2.7-2,4.1-3.1
		c0-5.8,0-11.6,0-17.3c0-319.7,0-639.4,0.1-959.1c0-6.8,0.8-13.7,1.2-20.5C213.9,1,136.5,1,59.1,1c-0.4,1.9-0.5,3.9-1.4,5.5
		C30.6,57.1,13.4,110.9,6.3,168C4.6,181.5-1,236.5,4,259.2z"/>
</g>
</svg>
