<?xml version="1.0" encoding="utf-8"?>
<!-- Generator: Adobe Illustrator 23.0.1, SVG Export Plug-In . SVG Version: 6.00 Build 0)  -->
<svg version="1.1" id="Layer_1" xmlns="http://www.w3.org/2000/svg" xmlns:xlink="http://www.w3.org/1999/xlink" x="0px" y="0px"
	 viewBox="0 0 789.3 728.6" style="enable-background:new 0 0 789.3 728.6;" xml:space="preserve">
<style type="text/css">
	.st0{fill:#024782;}
</style>
<g>
	<path class="st0" d="M0,0c0,236.4,0,472.8,0,709.2c2,0.4,4,0.7,5.9,1.3c38.6,12,78.2,17.7,118.5,18.2c15.3,0.2,30.7-0.3,45.9-1.8
		c22.6-2.3,45.2-4.8,67.5-8.9c56.9-10.6,111.8-28.2,164.9-51c58.8-25.3,117.3-51.3,175.7-77.6c33.7-15.2,67.4-30.7,100.2-47.6
		c30.9-15.9,59.2-35.9,83.8-60.8c22.3-22.5,28.7-50.2,26.3-80.2c-2.2-28.5-15.4-52.4-35.2-72.8c-20.4-21-44.9-35.8-71.4-47.7
		c-39.3-17.7-80.7-28.4-123-35.6c-53.2-9-106.6-16.7-159.8-25.9c-37.5-6.5-74.8-13.7-111.9-22.1c-36.9-8.4-72.4-21.4-106.3-38.5
		C123.3,129,75.3,87.4,32.8,39.2C21.8,26.3,11,13.1,0,0z"/>
</g>
</svg>
