<?xml version="1.0" encoding="utf-8"?>
<!-- Generator: Adobe Illustrator 23.0.1, SVG Export Plug-In . SVG Version: 6.00 Build 0)  -->
<svg version="1.1" id="Layer_1" xmlns="http://www.w3.org/2000/svg" xmlns:xlink="http://www.w3.org/1999/xlink" x="0px" y="0px"
	 viewBox="0 0 583.5 140.9" style="enable-background:new 0 0 583.5 140.9;" xml:space="preserve">
<style type="text/css">
	.st0{fill-rule:evenodd;clip-rule:evenodd;fill:#FFFFFF;}
	.st1{fill:#FFFFFF;}
</style>
<g>
	<g>
		<g>
			<path class="st0" d="M81.3,38.8c0,8.3-6.7,15-15,15s-15-6.7-15-15s6.7-15,15-15S81.3,30.5,81.3,38.8z"/>
			<path class="st0" d="M135.5,38.8c0,8.3-6.7,15-15,15s-15-6.7-15-15s6.7-15,15-15S135.5,30.5,135.5,38.8z"/>
			<path class="st0" d="M201.4,80.7c-6,0-12,6.4-12,12c0,8.3-6.7,15-15,15s-15-6.7-15-15c0-5.6-6-12-12-12c-8.3,0-15-6.7-15-15
				s6.7-15,15-15s15,6.7,15,15c0,5.6,6,12,12,12c5.6,0,12-6,12-12c0-8.3,6.7-15,15-15s15,6.7,15,15S209.7,80.7,201.4,80.7z"/>
			<circle class="st0" cx="174.4" cy="38.8" r="15"/>
			<path class="st0" d="M147.5,80.7c-6,0-12,6.4-12,12c0,8.3-6.7,15-15,15s-15-6.7-15-15c0-5.6-6-12-12-12c-8.3,0-15-6.7-15-15
				s6.7-15,15-15s15,6.7,15,15c0,5.6,6,12,12,12c5.6,0,12-6,12-12c0-8.3,6.7-15,15-15s15,6.7,15,15S155.8,80.7,147.5,80.7z"/>
			<path class="st0" d="M93.3,80.7c-6,0-12,6.4-12,12c0,8.3-6.7,15-15,15s-15-6.7-15-15c0-5.6-6-12-12-12c-8.3,0-15-6.7-15-15
				s6.7-15,15-15s15,6.7,15,15c0,5.6,6,12,12,12c5.6,0,12-6,12-12c0-8.3,6.7-15,15-15s15,6.7,15,15S101.6,80.7,93.3,80.7z"/>
		</g>
		<g>
			<path class="st1" d="M488.3,89.7V32.4c0-2.3,1.9-4.2,4.2-4.2h7.2c2.3,0,4.2,1.9,4.2,4.2v57.3c0,2.3-1.9,4.2-4.2,4.2h-7.2
				C490.2,93.9,488.3,92.1,488.3,89.7z"/>
			<g>
				<path class="st1" d="M226.5,95.2V42.4H209v-14h50.6v14H242v52.9C242,95.2,226.5,95.2,226.5,95.2z"/>
				<path class="st1" d="M266.4,95.2V28.4h28.1c2.8,0,5.4,0.4,7.8,1c2.4,0.7,4.4,1.9,6.2,3.5c1.8,1.7,3.1,3.9,4.1,6.7
					c1,2.8,1.5,6.4,1.5,10.7c0,2.9-0.3,5.5-0.8,7.5s-1.3,3.8-2.2,5.2s-1.9,2.6-3.1,3.5c-1.2,0.9-2.4,1.7-3.6,2.3l12,26.3h-15.9
					l-10-23.8c-0.6,0-1.3,0-2,0s-1.5-0.1-2.2-0.1s-1.5,0-2.2,0s-1.5,0-2.1,0v23.9L266.4,95.2L266.4,95.2z M281.9,59h9.7
					c1.1,0,2-0.1,2.9-0.4s1.6-0.8,2.2-1.4s1-1.6,1.4-2.7c0.3-1.1,0.5-2.4,0.5-4s-0.1-3-0.5-4c-0.3-1-0.8-1.9-1.4-2.4s-1.3-1-2.2-1.3
					c-0.8-0.3-1.8-0.4-2.9-0.4h-9.7V59z"/>
				<path class="st1" d="M319,95.2l20.4-66.8h19.5l20.4,66.8h-16.1l-3.4-12.2h-21.3l-3.3,12.2C335.1,95.2,319,95.2,319,95.2z
					 M342,69.1h14l-7-27.4L342,69.1z"/>
				<path class="st1" d="M383.7,95.2V44.4c0-3.1,0.5-5.7,1.5-7.8c1-2.1,2.3-3.7,3.8-4.9c1.5-1.2,3.3-2,5.2-2.5
					c1.9-0.5,3.8-0.8,5.6-0.8c2,0,4.6,0,7.9,0.1c3.3,0.1,6.8,0.2,10.5,0.4s7.3,0.5,10.8,0.9v13.1h-24.8c-1.7,0-2.9,0.5-3.7,1.3
					c-0.8,0.9-1.2,2-1.2,3.2v9.4l25.2,0.8v12.3l-25.2,0.8v24.6L383.7,95.2L383.7,95.2z"/>
				<path class="st1" d="M435.8,95.2V44.4c0-3.1,0.5-5.7,1.5-7.8c1-2.1,2.3-3.7,3.8-4.9c1.5-1.2,3.3-2,5.2-2.5
					c1.9-0.5,3.8-0.8,5.6-0.8c2,0,4.6,0,7.9,0.1c3.3,0.1,6.8,0.2,10.5,0.4s7.3,0.5,10.8,0.9v13.1h-24.8c-1.7,0-2.9,0.5-3.7,1.3
					c-0.8,0.9-1.2,2-1.2,3.2v9.4l25.2,0.8v12.3l-25.2,0.8v24.6L435.8,95.2L435.8,95.2z"/>
				<path class="st1" d="M537.7,95.8c-3.8,0-7.3-0.4-10.2-1.3s-5.5-2.6-7.7-4.9c-2.1-2.4-3.8-5.9-4.9-10.4s-1.7-10.3-1.7-17.5
					c0-7,0.6-12.7,1.8-17.1s2.8-7.8,5-10.3s4.7-4.1,7.7-5.1s6.4-1.4,10.1-1.4c3.4,0,6.4,0.2,9.2,0.5s5.2,0.8,7.2,1.3
					c2,0.5,3.7,1,5,1.6v12.1c-1.1-0.2-2.6-0.5-4.4-0.7s-3.9-0.4-6.2-0.6c-2.3-0.2-4.8-0.2-7.5-0.2c-2.2,0-4.1,0.2-5.7,0.7
					c-1.6,0.5-2.8,1.4-3.8,2.8c-0.9,1.4-1.6,3.4-2.1,6.1s-0.7,6.1-0.7,10.4c0,4,0.2,7.4,0.5,10s1,4.7,1.9,6.1
					c0.9,1.4,2.2,2.5,3.7,3.1c1.6,0.6,3.7,0.9,6.2,0.9c4.6,0,8.3-0.1,11.1-0.3s5.2-0.4,6.9-0.6V93c-1.6,0.6-3.4,1.1-5.4,1.5
					c-2,0.4-4.4,0.7-7,0.9C544.1,95.7,541.1,95.8,537.7,95.8z"/>
			</g>
		</g>
		<g>
			<path class="st1" d="M226.4,113.2v-11.7h4.8c0.8,0,1.4,0.1,1.9,0.4c0.5,0.3,0.9,0.7,1.2,1.2c0.3,0.5,0.5,1.1,0.7,1.8
				s0.2,1.5,0.2,2.4c0,1.3-0.1,2.4-0.4,3.2c-0.3,0.9-0.7,1.5-1.3,2c-0.6,0.4-1.3,0.7-2.2,0.7H226.4z M228.3,111.4h2.7
				c0.5,0,1-0.2,1.3-0.5c0.3-0.3,0.6-0.8,0.7-1.4c0.1-0.6,0.2-1.3,0.2-2.2c0-0.8-0.1-1.5-0.1-2c-0.1-0.5-0.2-0.9-0.4-1.3
				c-0.2-0.3-0.4-0.5-0.7-0.7c-0.3-0.1-0.6-0.2-1-0.2h-2.7L228.3,111.4L228.3,111.4z"/>
			<path class="st1" d="M243.8,103.3c-0.2,0-0.3-0.1-0.3-0.3v-1.4c0-0.2,0.1-0.3,0.3-0.3h1.5c0.1,0,0.2,0,0.2,0.1
				c0.1,0.1,0.1,0.1,0.1,0.2v1.4c0,0.2-0.1,0.3-0.3,0.3H243.8z M243.5,113.2v-8.5h2v8.5H243.5z"/>
			<path class="st1" d="M256.1,117.1c-0.5,0-1-0.1-1.4-0.2s-0.8-0.4-1-0.7s-0.4-0.7-0.4-1.1v-0.3c0-0.5,0.1-0.9,0.4-1.2
				c0.3-0.3,0.6-0.6,1-0.7c0.4-0.2,0.8-0.3,1.3-0.3l0.6,0.7c-0.3,0-0.5,0-0.7,0.1c-0.2,0.1-0.4,0.2-0.5,0.4
				c-0.1,0.2-0.2,0.4-0.2,0.6v0.3c0,0.4,0.1,0.7,0.4,0.8s0.6,0.3,1.1,0.3h1.7c0.5,0,0.9-0.1,1.1-0.3c0.3-0.2,0.4-0.5,0.4-0.8v-0.3
				c0-0.2,0-0.4-0.1-0.6c-0.1-0.2-0.3-0.3-0.5-0.4c-0.2-0.1-0.5-0.1-0.9-0.1h-2.1c-0.9,0-1.5-0.2-1.9-0.5c-0.4-0.3-0.6-0.7-0.6-1.2
				c0-0.4,0.1-0.8,0.4-1.1c0.3-0.3,0.6-0.5,1-0.6c-0.4-0.2-0.6-0.4-0.9-0.7s-0.4-0.6-0.4-0.9c-0.1-0.3-0.1-0.6-0.1-0.9
				c0-0.6,0.1-1.2,0.4-1.6c0.3-0.4,0.6-0.7,1.2-0.9c0.5-0.2,1.1-0.3,1.9-0.3h4.6v1.1l-1.5,0.2c0.1,0.1,0.2,0.2,0.3,0.4
				s0.2,0.3,0.3,0.6c0.1,0.2,0.1,0.6,0.1,0.9c0,0.5-0.1,0.9-0.3,1.3c-0.2,0.4-0.5,0.7-1,0.9c-0.4,0.2-1,0.3-1.8,0.3h-1.4
				c-0.3,0-0.6,0.1-0.8,0.2c-0.2,0.1-0.3,0.3-0.3,0.5c0,0.2,0.1,0.4,0.3,0.4s0.4,0.1,0.5,0.1h2.5c0.6,0,1.2,0.1,1.6,0.3
				s0.8,0.4,1,0.8c0.2,0.4,0.4,0.8,0.4,1.4v0.3c0,0.8-0.3,1.4-0.8,1.9c-0.5,0.5-1.3,0.7-2.4,0.7L256.1,117.1L256.1,117.1z M257,109
				h0.9c0.4,0,0.7-0.1,0.9-0.2s0.4-0.3,0.4-0.5c0.1-0.2,0.1-0.4,0.1-0.7c0-0.4-0.1-0.7-0.2-0.9c-0.1-0.2-0.3-0.4-0.5-0.5
				c-0.2-0.1-0.5-0.1-0.8-0.1h-0.9c-0.5,0-0.8,0.1-1.1,0.3s-0.4,0.6-0.4,1.1s0.1,0.9,0.4,1.1C256.2,108.9,256.5,109,257,109z"/>
			<path class="st1" d="M269.9,103.3c-0.2,0-0.3-0.1-0.3-0.3v-1.4c0-0.2,0.1-0.3,0.3-0.3h1.5c0.1,0,0.2,0,0.2,0.1s0.1,0.1,0.1,0.2
				v1.4c0,0.2-0.1,0.3-0.3,0.3H269.9z M269.7,113.2v-8.5h2v8.5H269.7z"/>
			<path class="st1" d="M283.2,113.2c-0.6,0-1.1-0.1-1.5-0.3c-0.4-0.2-0.7-0.5-0.9-0.9c-0.2-0.4-0.3-1-0.3-1.7l0.1-4h-1.3V105
				l1.4-0.3l0.3-2.4h1.5v2.4h2.2v1.6h-2.2v4c0,0.3,0,0.5,0.1,0.7s0.1,0.3,0.2,0.4c0.1,0.1,0.2,0.2,0.3,0.2c0.1,0,0.2,0.1,0.4,0.1
				l1.1,0.1v1.4L283.2,113.2L283.2,113.2z"/>
			<path class="st1" d="M294.4,113.3c-0.6,0-1.1-0.2-1.5-0.6s-0.6-0.9-0.6-1.6v-0.7c0-0.7,0.2-1.2,0.7-1.6c0.5-0.4,1.1-0.6,2.1-0.6
				h2.4v-0.8c0-0.3,0-0.5-0.2-0.7c-0.1-0.2-0.3-0.3-0.6-0.4c-0.3-0.1-0.7-0.2-1.3-0.2h-2.6V105c0.4-0.1,0.9-0.2,1.4-0.3
				s1.2-0.1,1.9-0.1c0.7,0,1.3,0.1,1.8,0.3c0.5,0.2,0.9,0.5,1.1,0.9s0.4,0.9,0.4,1.7v5.8h-1.5l-0.3-0.9c-0.1,0.1-0.2,0.2-0.4,0.3
				c-0.2,0.1-0.4,0.2-0.7,0.3c-0.3,0.1-0.6,0.2-0.9,0.3C295.2,113.3,294.8,113.3,294.4,113.3z M295.4,111.9c0.1,0,0.3,0,0.5-0.1
				c0.2,0,0.4-0.1,0.5-0.1c0.2-0.1,0.4-0.1,0.5-0.1c0.1-0.1,0.3-0.1,0.4-0.1s0.2-0.1,0.2-0.1v-2.2l-1.8,0.1c-0.5,0-0.8,0.2-1,0.4
				c-0.2,0.2-0.3,0.5-0.3,0.8v0.3c0,0.3,0.1,0.5,0.2,0.6c0.1,0.2,0.3,0.3,0.4,0.3C295,111.9,295.2,111.9,295.4,111.9z"/>
			<path class="st1" d="M310.4,113.2c-0.6,0-1-0.1-1.4-0.3c-0.4-0.2-0.7-0.5-0.8-0.9c-0.2-0.4-0.3-0.9-0.3-1.6v-9.3h2v9.1
				c0,0.4,0,0.7,0.1,0.9s0.2,0.4,0.3,0.4s0.3,0.2,0.5,0.2l0.7,0.1v1.4H310.4z"/>
			<path class="st1" d="M329.6,113.2l1.4-11.7h1.9l2.8,9.4l2.8-9.4h1.9l1.4,11.7h-1.9l-1.1-9.2l0.3,0l-2.5,9.2h-1.8l-2.6-9.2l0.3,0
				l-1,9.2H329.6z"/>
			<path class="st1" d="M351.7,113.3c-0.6,0-1.1-0.2-1.5-0.6s-0.6-0.9-0.6-1.6v-0.7c0-0.7,0.2-1.2,0.7-1.6c0.5-0.4,1.1-0.6,2.1-0.6
				h2.4v-0.8c0-0.3,0-0.5-0.2-0.7c-0.1-0.2-0.3-0.3-0.6-0.4c-0.3-0.1-0.7-0.2-1.3-0.2h-2.6V105c0.4-0.1,0.9-0.2,1.4-0.3
				s1.2-0.1,1.9-0.1c0.7,0,1.3,0.1,1.8,0.3c0.5,0.2,0.9,0.5,1.1,0.9s0.4,0.9,0.4,1.7v5.8h-1.5l-0.3-0.9c-0.1,0.1-0.2,0.2-0.4,0.3
				c-0.2,0.1-0.4,0.2-0.7,0.3c-0.3,0.1-0.6,0.2-0.9,0.3C352.4,113.3,352,113.3,351.7,113.3z M352.6,111.9c0.1,0,0.3,0,0.5-0.1
				c0.2,0,0.4-0.1,0.5-0.1c0.2-0.1,0.4-0.1,0.5-0.1c0.1-0.1,0.3-0.1,0.4-0.1s0.2-0.1,0.2-0.1v-2.2l-1.8,0.1c-0.5,0-0.8,0.2-1,0.4
				c-0.2,0.2-0.3,0.5-0.3,0.8v0.3c0,0.3,0.1,0.5,0.2,0.6c0.1,0.2,0.3,0.3,0.4,0.3C352.3,111.9,352.4,111.9,352.6,111.9z"/>
			<path class="st1" d="M365.1,113.2v-8.5h1.5l0.4,1.4c0.3-0.4,0.7-0.8,1.1-1.1c0.4-0.3,0.9-0.4,1.5-0.4c0.1,0,0.2,0,0.4,0
				c0.1,0,0.2,0,0.4,0.1v2c-0.1,0-0.3,0-0.5-0.1s-0.3,0-0.5,0c-0.3,0-0.6,0-0.9,0.1s-0.5,0.2-0.8,0.3c-0.2,0.2-0.5,0.3-0.7,0.6v5.6
				L365.1,113.2L365.1,113.2z"/>
			<path class="st1" d="M378.3,113.2v-12.1h2v6.7h1.1l2.1-3.1h2l-2.7,4l2.9,4.5h-2l-2.4-3.6h-1v3.6L378.3,113.2L378.3,113.2z"/>
			<path class="st1" d="M396.7,113.3c-0.9,0-1.6-0.1-2.2-0.4c-0.5-0.3-0.9-0.7-1.2-1.3s-0.4-1.5-0.4-2.6c0-1.1,0.1-2,0.4-2.7
				c0.2-0.6,0.6-1.1,1.2-1.3s1.3-0.4,2.2-0.4c0.8,0,1.5,0.1,2,0.3c0.5,0.2,0.9,0.4,1.1,0.9c0.2,0.4,0.3,1,0.3,1.8
				c0,0.5-0.1,1-0.3,1.3c-0.2,0.3-0.5,0.6-0.9,0.7c-0.4,0.1-0.9,0.2-1.4,0.2H395c0,0.5,0.1,0.9,0.2,1.3c0.1,0.3,0.3,0.5,0.7,0.7
				c0.3,0.1,0.8,0.2,1.4,0.2h2.6v1.2c-0.4,0.1-0.9,0.2-1.4,0.2C398,113.2,397.4,113.3,396.7,113.3z M394.9,108.5h2.3
				c0.4,0,0.6-0.1,0.8-0.2c0.2-0.1,0.3-0.4,0.3-0.8c0-0.4,0-0.7-0.2-0.9c-0.1-0.2-0.3-0.4-0.5-0.4s-0.6-0.1-1-0.1
				c-0.4,0-0.8,0.1-1,0.2c-0.3,0.1-0.4,0.4-0.5,0.7C395,107.3,394.9,107.8,394.9,108.5z"/>
			<path class="st1" d="M411.4,113.2c-0.6,0-1.1-0.1-1.5-0.3c-0.4-0.2-0.7-0.5-0.9-0.9c-0.2-0.4-0.3-1-0.3-1.7l0.1-4h-1.3V105
				l1.4-0.3l0.3-2.4h1.5v2.4h2.2v1.6h-2.2v4c0,0.3,0,0.5,0.1,0.7s0.1,0.3,0.2,0.4c0.1,0.1,0.2,0.2,0.3,0.2c0.1,0,0.2,0.1,0.4,0.1
				l1.1,0.1v1.4L411.4,113.2L411.4,113.2z"/>
			<path class="st1" d="M421.1,103.3c-0.2,0-0.3-0.1-0.3-0.3v-1.4c0-0.2,0.1-0.3,0.3-0.3h1.5c0.1,0,0.2,0,0.2,0.1
				c0,0.1,0.1,0.1,0.1,0.2v1.4c0,0.2-0.1,0.3-0.3,0.3H421.1z M420.8,113.2v-8.5h2v8.5H420.8z"/>
			<path class="st1" d="M431.3,113.2v-8.5h1.6l0.4,0.9c0.4-0.3,0.8-0.5,1.3-0.7c0.5-0.2,1-0.3,1.6-0.3c0.7,0,1.2,0.1,1.6,0.4
				s0.6,0.6,0.8,1.1c0.2,0.4,0.3,0.9,0.3,1.5v5.7h-2v-5.4c0-0.3-0.1-0.6-0.2-0.8c-0.1-0.2-0.3-0.4-0.5-0.5c-0.2-0.1-0.5-0.2-0.8-0.2
				c-0.3,0-0.5,0-0.8,0.1s-0.5,0.1-0.7,0.2c-0.2,0.1-0.4,0.2-0.6,0.4v6.2L431.3,113.2L431.3,113.2z"/>
			<path class="st1" d="M449.4,117.1c-0.5,0-1-0.1-1.4-0.2s-0.8-0.4-1-0.7s-0.4-0.7-0.4-1.1v-0.3c0-0.5,0.1-0.9,0.4-1.2
				c0.3-0.3,0.6-0.6,1-0.7s0.8-0.3,1.3-0.3l0.6,0.7c-0.3,0-0.5,0-0.7,0.1c-0.2,0.1-0.4,0.2-0.5,0.4s-0.2,0.4-0.2,0.6v0.3
				c0,0.4,0.1,0.7,0.4,0.8s0.6,0.3,1.1,0.3h1.7c0.5,0,0.9-0.1,1.1-0.3c0.3-0.2,0.4-0.5,0.4-0.8v-0.3c0-0.2,0-0.4-0.1-0.6
				c-0.1-0.2-0.3-0.3-0.5-0.4c-0.2-0.1-0.5-0.1-0.9-0.1h-2.1c-0.9,0-1.5-0.2-1.9-0.5c-0.4-0.3-0.6-0.7-0.6-1.2
				c0-0.4,0.1-0.8,0.4-1.1c0.3-0.3,0.6-0.5,1-0.6c-0.4-0.2-0.6-0.4-0.9-0.7s-0.4-0.6-0.4-0.9c-0.1-0.3-0.1-0.6-0.1-0.9
				c0-0.6,0.1-1.2,0.4-1.6c0.3-0.4,0.6-0.7,1.2-0.9c0.5-0.2,1.1-0.3,1.9-0.3h4.6v1.1l-1.5,0.2c0.1,0.1,0.2,0.2,0.3,0.4
				s0.2,0.3,0.3,0.6c0.1,0.2,0.1,0.6,0.1,0.9c0,0.5-0.1,0.9-0.3,1.3c-0.2,0.4-0.5,0.7-1,0.9c-0.4,0.2-1,0.3-1.8,0.3h-1.4
				c-0.3,0-0.6,0.1-0.8,0.2c-0.2,0.1-0.3,0.3-0.3,0.5c0,0.2,0.1,0.4,0.3,0.4s0.4,0.1,0.5,0.1h2.5c0.6,0,1.2,0.1,1.6,0.3
				s0.8,0.4,1,0.8c0.2,0.4,0.4,0.8,0.4,1.4v0.3c0,0.8-0.3,1.4-0.8,1.9c-0.5,0.5-1.3,0.7-2.4,0.7L449.4,117.1L449.4,117.1z
				 M450.2,109h0.9c0.4,0,0.7-0.1,0.9-0.2s0.4-0.3,0.4-0.5c0.1-0.2,0.1-0.4,0.1-0.7c0-0.4-0.1-0.7-0.2-0.9c-0.1-0.2-0.3-0.4-0.5-0.5
				c-0.2-0.1-0.5-0.1-0.8-0.1h-0.9c-0.5,0-0.8,0.1-1.1,0.3s-0.4,0.6-0.4,1.1s0.1,0.9,0.4,1.1C449.4,108.9,449.8,109,450.2,109z"/>
			<path class="st1" d="M472.9,113.2l3.8-11.7h2.5l3.8,11.7h-2l-0.9-2.8h-4.2l-0.9,2.8H472.9z M476.3,108.7h3.3l-1.6-5.5
				L476.3,108.7z"/>
			<path class="st1" d="M492.9,117.1c-0.5,0-1-0.1-1.4-0.2s-0.8-0.4-1-0.7s-0.4-0.7-0.4-1.1v-0.3c0-0.5,0.1-0.9,0.4-1.2
				c0.3-0.3,0.6-0.6,1-0.7s0.8-0.3,1.3-0.3l0.6,0.7c-0.3,0-0.5,0-0.7,0.1c-0.2,0.1-0.4,0.2-0.5,0.4s-0.2,0.4-0.2,0.6v0.3
				c0,0.4,0.1,0.7,0.4,0.8s0.6,0.3,1.1,0.3h1.7c0.5,0,0.9-0.1,1.1-0.3c0.3-0.2,0.4-0.5,0.4-0.8v-0.3c0-0.2,0-0.4-0.1-0.6
				c-0.1-0.2-0.3-0.3-0.5-0.4c-0.2-0.1-0.5-0.1-0.9-0.1h-2.1c-0.9,0-1.5-0.2-1.9-0.5c-0.4-0.3-0.6-0.7-0.6-1.2
				c0-0.4,0.1-0.8,0.4-1.1c0.3-0.3,0.6-0.5,1-0.6c-0.4-0.2-0.6-0.4-0.9-0.7s-0.4-0.6-0.4-0.9c-0.1-0.3-0.1-0.6-0.1-0.9
				c0-0.6,0.1-1.2,0.4-1.6c0.3-0.4,0.6-0.7,1.2-0.9c0.5-0.2,1.1-0.3,1.9-0.3h4.6v1.1l-1.5,0.2c0.1,0.1,0.2,0.2,0.3,0.4
				c0.1,0.2,0.2,0.3,0.3,0.6c0.1,0.2,0.1,0.6,0.1,0.9c0,0.5-0.1,0.9-0.3,1.3c-0.2,0.4-0.5,0.7-1,0.9c-0.4,0.2-1,0.3-1.8,0.3h-1.4
				c-0.3,0-0.6,0.1-0.8,0.2c-0.2,0.1-0.3,0.3-0.3,0.5c0,0.2,0.1,0.4,0.3,0.4s0.4,0.1,0.5,0.1h2.5c0.6,0,1.2,0.1,1.6,0.3
				s0.8,0.4,1,0.8c0.2,0.4,0.4,0.8,0.4,1.4v0.3c0,0.8-0.3,1.4-0.8,1.9c-0.5,0.5-1.3,0.7-2.4,0.7L492.9,117.1L492.9,117.1z
				 M493.7,109h0.9c0.4,0,0.7-0.1,0.9-0.2s0.4-0.3,0.4-0.5c0.1-0.2,0.1-0.4,0.1-0.7c0-0.4-0.1-0.7-0.2-0.9c-0.1-0.2-0.3-0.4-0.5-0.5
				c-0.2-0.1-0.5-0.1-0.8-0.1h-0.9c-0.5,0-0.8,0.1-1.1,0.3s-0.4,0.6-0.4,1.1s0.1,0.9,0.4,1.1C492.9,108.9,493.2,109,493.7,109z"/>
			<path class="st1" d="M509.8,113.3c-0.9,0-1.6-0.1-2.2-0.4c-0.5-0.3-0.9-0.7-1.2-1.3s-0.4-1.5-0.4-2.6c0-1.1,0.1-2,0.4-2.7
				c0.2-0.6,0.6-1.1,1.2-1.3s1.3-0.4,2.2-0.4c0.8,0,1.5,0.1,2,0.3c0.5,0.2,0.8,0.4,1.1,0.9c0.2,0.4,0.3,1,0.3,1.8
				c0,0.5-0.1,1-0.3,1.3s-0.5,0.6-0.9,0.7c-0.4,0.1-0.9,0.2-1.4,0.2h-2.5c0,0.5,0.1,0.9,0.2,1.3c0.1,0.3,0.3,0.5,0.7,0.7
				c0.3,0.1,0.8,0.2,1.4,0.2h2.6v1.2c-0.4,0.1-0.9,0.2-1.4,0.2C511.1,113.2,510.5,113.3,509.8,113.3z M508,108.5h2.3
				c0.4,0,0.6-0.1,0.8-0.2c0.2-0.1,0.3-0.4,0.3-0.8c0-0.4,0-0.7-0.2-0.9c-0.1-0.2-0.3-0.4-0.5-0.4s-0.6-0.1-1-0.1
				c-0.4,0-0.8,0.1-1,0.2c-0.3,0.1-0.4,0.4-0.5,0.7C508.1,107.3,508,107.8,508,108.5z"/>
			<path class="st1" d="M521.4,113.2v-8.5h1.6l0.4,0.9c0.3-0.3,0.8-0.5,1.3-0.7c0.5-0.2,1-0.3,1.6-0.3c0.7,0,1.2,0.1,1.6,0.4
				s0.7,0.6,0.8,1.1c0.2,0.4,0.3,0.9,0.3,1.5v5.7h-2v-5.4c0-0.3-0.1-0.6-0.2-0.8c-0.1-0.2-0.3-0.4-0.5-0.5c-0.2-0.1-0.5-0.2-0.8-0.2
				c-0.3,0-0.5,0-0.8,0.1s-0.5,0.1-0.7,0.2c-0.2,0.1-0.4,0.2-0.7,0.4v6.2L521.4,113.2L521.4,113.2z"/>
			<path class="st1" d="M540.6,113.3c-0.5,0-1-0.1-1.4-0.2c-0.4-0.1-0.8-0.4-1.1-0.7s-0.6-0.8-0.7-1.3c-0.2-0.6-0.3-1.3-0.3-2.1
				c0-0.9,0.1-1.6,0.3-2.2c0.2-0.6,0.4-1,0.7-1.3s0.7-0.6,1.1-0.7c0.4-0.1,0.9-0.2,1.5-0.2c0.5,0,1,0,1.4,0.1c0.5,0.1,1,0.1,1.5,0.3
				v1.1h-2.3c-0.5,0-0.9,0.1-1.2,0.2c-0.3,0.2-0.5,0.4-0.7,0.9c-0.2,0.4-0.2,1-0.2,1.8c0,0.8,0.1,1.4,0.2,1.8
				c0.2,0.4,0.4,0.7,0.7,0.8c0.3,0.1,0.7,0.2,1.2,0.2h2.4v1.1c-0.3,0.1-0.5,0.1-0.9,0.2s-0.7,0.1-1.1,0.1
				C541.3,113.3,540.9,113.3,540.6,113.3z"/>
			<path class="st1" d="M554.1,116.9l1-3.8c-0.4,0-0.8-0.1-1.1-0.2c-0.3-0.2-0.6-0.4-0.8-0.7c-0.2-0.3-0.4-0.7-0.6-1.2l-1.7-6.3h2
				l1.5,5.9c0.1,0.2,0.2,0.4,0.3,0.6c0.1,0.1,0.2,0.2,0.3,0.3s0.2,0.1,0.3,0.1c0.1,0,0.2,0,0.2,0l1.8-6.9h2l-2.7,10.7l-0.8,1.6
				H554.1z"/>
		</g>
	</g>
</g>
</svg>
